<svg width="139" height="168" viewBox="0 0 139 168" fill="none" xmlns="http://www.w3.org/2000/svg">
<path d="M27.2873 44.8305L27.3606 89.6855H35.3H43.2393L43.3859 68.8853C43.5325 45.8338 43.4348 47.3999 45.1936 42.9462C47.9785 35.8986 54.3789 29.6096 61.4632 26.9667C64.9321 25.6698 66.9353 25.3517 71.5767 25.3517C75.5831 25.3517 76.1938 25.4006 78.4168 26.0124C83.7911 27.4317 87.5043 29.5362 91.4374 33.3781C95.4192 37.269 97.4957 40.8662 99.1324 46.7392C99.621 48.5011 99.6454 49.2842 99.7676 69.13L99.9141 89.6855H107.976H116.037V44.9039C116.037 0.122192 116.037 0.122192 111.151 0.122192C106.266 0.122192 106.266 0.122192 106.241 4.72271C106.192 9.34771 106.192 9.34771 101.233 9.34771C96.2498 9.34771 96.2498 9.34771 96.1765 4.67377C96.1277 -0.000162359 96.1277 -0.000162359 91.4129 0.0487794C86.7226 0.122192 86.7226 0.122192 86.6982 4.72271C86.6493 9.34771 86.6493 9.34771 81.5681 9.34771C76.4625 9.34771 76.4625 9.34771 76.3892 4.67377C76.3404 -0.000162359 76.3404 -0.000162359 71.5767 -0.000162359C66.8131 -0.000162359 66.8131 -0.000162359 66.7643 2.74057C66.7154 4.25777 66.691 6.36226 66.691 7.41451C66.691 9.32324 66.691 9.32324 61.6342 9.37218C56.553 9.42112 56.553 9.42112 56.5042 4.77166C56.4309 0.122192 56.4309 0.122192 51.7894 0.122192C47.148 0.122192 47.148 0.122192 47.0258 4.72271C46.9037 9.32324 46.9037 9.32324 41.9202 9.32324C36.9367 9.32324 36.9367 9.32324 36.9123 4.72271C36.8879 0.122192 36.8879 0.122192 32.051 0.0487794C27.2385 -0.000162359 27.2385 -0.000162359 27.2873 44.8305Z" fill="white"/>
<path d="M68.523 34.1857C62.3181 35.2624 56.9926 39.2757 54.11 45.0263C51.9114 49.4066 51.8626 49.945 51.9603 71.6996L52.0336 89.6856L65.2251 89.808C78.4167 89.9303 78.4167 89.9303 84.5727 93.0381C87.9684 94.7756 90.8021 96.1704 90.8754 96.1704C90.9487 96.1704 90.9731 85.6724 90.9487 72.8497C90.8754 49.5534 90.8754 49.5534 90.2891 47.8405C88.1394 41.4291 83.9376 36.9754 78.1235 34.9688C76.5357 34.4304 72.7492 33.7697 71.4545 33.7942C70.9903 33.7942 69.6712 33.99 68.523 34.1857ZM63.1243 64.7988C64.077 65.3127 64.8587 66.5851 64.8587 67.6129C64.8587 70.9654 60.5104 72.2379 58.7759 69.4238C56.9682 66.4873 60.1195 63.1837 63.1243 64.7988ZM73.4332 64.9211C74.3371 65.5329 75.0944 66.8298 75.0944 67.7842C75.0699 68.6407 74.3615 69.7664 73.4088 70.4026C71.9431 71.4304 69.891 71.0144 68.8162 69.4727C68.2787 68.6896 68.2787 66.5851 68.865 65.7287C69.7445 64.3583 72.0163 63.9668 73.4332 64.9211ZM83.962 65.2637C86.0629 67.3927 84.646 71.0388 81.6901 71.0144C80.1756 70.9899 78.9786 70.0355 78.5388 68.4939C78.2457 67.4416 78.5388 66.2425 79.3206 65.3861C80.1023 64.5541 80.6886 64.3583 82.0322 64.4562C82.9604 64.5051 83.3757 64.7009 83.962 65.2637Z" fill="#EAB472"/>
<path d="M88.2614 106.767C87.9194 106.938 87.382 107.28 87.0888 107.55C85.8429 108.675 85.8429 108.749 85.8674 118.757C85.8674 123.896 85.8918 128.203 85.8674 128.325C85.8674 128.423 85.2811 127.983 84.5726 127.322C83.8398 126.686 82.5939 125.78 81.7633 125.34C70.4528 119.296 55.9909 124.679 51.4472 136.572C49.3219 142.151 49.4929 148.881 51.9358 154.485C53.5969 158.327 56.8704 162.071 60.3393 164.102C63.7349 166.108 68.2298 167.381 71.8941 167.381C73.5553 167.381 77.1951 166.794 78.9052 166.231C86.5514 163.784 92.6586 156.589 93.9044 148.612C94.0754 147.437 94.1732 140.659 94.1732 128.032C94.1732 109.214 94.1732 109.214 93.6357 108.406C92.7319 107.085 91.9013 106.62 90.3378 106.522C89.5561 106.497 88.6278 106.595 88.2614 106.767ZM76.3401 131.36C78.5387 132.118 79.6136 132.779 81.2259 134.272C83.1802 136.058 84.0352 137.355 84.9391 139.802C85.5498 141.466 85.7208 142.298 85.8185 144.501C85.9895 148.954 84.8658 152.136 82.0565 155.121C79.3937 157.96 76.1936 159.305 72.0407 159.305C70.1352 159.305 69.1825 159.183 67.8633 158.743C61.9027 156.809 58.2628 151.622 58.2628 145.088C58.2628 138.065 62.8066 132.388 69.6222 130.919C71.1368 130.577 74.8255 130.821 76.3401 131.36Z" fill="white"/>
<path d="M17.0271 123.235C11.8482 124.386 7.30445 127.322 4.32414 131.36C0.928536 135.96 -0.439477 141.148 0.122385 147.437C0.879678 156.198 6.13187 163.221 13.9247 166.01C16.0011 166.745 19.3478 167.381 21.1556 167.381C22.7434 167.381 26.1391 166.794 27.8491 166.255C30.4385 165.399 34.0784 163.123 35.1288 161.704C35.3976 161.337 35.7396 161.043 35.8861 161.092C36.0083 161.141 36.106 161.802 36.0571 162.56C35.9839 164.371 36.5213 165.497 37.8649 166.28C39.6482 167.356 41.4559 167.038 42.9949 165.423C43.7278 164.665 43.7278 164.665 43.8011 154.216C43.8744 143.326 43.7278 140.928 42.8483 138.04C40.6986 130.993 34.9578 125.536 27.6048 123.554C25.113 122.868 19.3723 122.697 17.0271 123.235ZM26.4566 131.507C30.3164 133.048 32.4905 135.104 34.225 138.872C35.251 141.099 35.6419 143.571 35.4709 146.483C35.08 152.478 31.9287 156.663 26.2856 158.767C24.2336 159.526 20.3739 159.624 18.0775 158.938C13.5827 157.641 10.3581 154.436 8.77018 149.762C8.06174 147.657 8.1106 142.372 8.86789 140.169C10.2848 136.083 13.6315 132.706 17.5401 131.433C19.6898 130.748 20.0074 130.699 22.5969 130.797C24.3557 130.87 25.284 131.042 26.4566 131.507Z" fill="white"/>
<path d="M117.478 123.333C110.736 124.85 105.606 128.839 102.626 134.957C100.793 138.701 100.403 140.438 100.427 144.99C100.427 148.244 100.5 148.905 101.111 150.961C103.578 159.452 109.979 165.252 118.675 166.916C121.704 167.478 123.512 167.503 126.468 166.989C130.352 166.328 133.308 165.08 136.313 162.78C138.609 161.043 139 160.455 139 158.669C139 157.299 138.927 157.054 138.292 156.393C137.363 155.439 135.702 154.778 134.701 154.998C134.261 155.072 133.064 155.683 132.062 156.344C131.036 157.005 129.766 157.739 129.229 157.959C123.683 160.333 117.649 159.476 113.545 155.757C110.394 152.918 108.733 149.125 108.757 144.867C108.757 143.399 108.904 142.004 109.197 141.074C110.345 137.159 112.983 133.88 116.428 132.167C118.92 130.919 120.581 130.576 123.488 130.748C126.59 130.919 128.593 131.653 132.38 133.953C134.701 135.348 136.459 135.128 138.121 133.244C138.78 132.485 138.878 132.191 138.878 130.919C138.878 129.598 138.805 129.402 138.023 128.619C136.826 127.42 133.479 125.413 131.207 124.532C126.834 122.844 121.704 122.403 117.478 123.333Z" fill="white"/>
</svg>
